<svg id="adjustments" xmlns="http://www.w3.org/2000/svg" width="60" height="60" viewBox="0 0 60 60">
  <metadata><?xpacket begin="﻿" id="W5M0MpCehiHzreSzNTczkc9d"?>
<x:xmpmeta xmlns:x="adobe:ns:meta/" x:xmptk="Adobe XMP Core 5.6-c142 79.160924, 2017/07/13-01:06:39        ">
   <rdf:RDF xmlns:rdf="http://www.w3.org/1999/02/22-rdf-syntax-ns#">
      <rdf:Description rdf:about=""/>
   </rdf:RDF>
</x:xmpmeta>
                                                                                                    
                                                                                                    
                                                                                                    
                                                                                                    
                                                                                                    
                                                                                                    
                                                                                                    
                                                                                                    
                                                                                                    
                                                                                                    
                                                                                                    
                                                                                                    
                                                                                                    
                                                                                                    
                                                                                                    
                                                                                                    
                                                                                                    
                                                                                                    
                                                                                                    
                                                                                                    
                           
<?xpacket end="w"?></metadata>
<defs>
    <style>
      .cls-1 {
        fill: #26e6e6;
      }

      .cls-1, .cls-2 {
        fill-rule: evenodd;
      }

      .cls-2 {
        fill: #2f3238;
      }
    </style>
  </defs>
  <path id="blue" class="cls-1" d="M366,4501a1,1,0,0,1,1,1v14a1,1,0,0,1-2,0v-14A1,1,0,0,1,366,4501Zm-32,16a1,1,0,0,1-1-1v-6a1,1,0,0,1,2,0v6A1,1,0,0,1,334,4517Zm16-28a1,1,0,0,1,1,1v26a1,1,0,0,1-2,0v-26A1,1,0,0,1,350,4489Z" transform="translate(-320 -4467)"/>
  <path id="black" class="cls-2" d="M379,4527a1,1,0,0,1-1-1v-55a2,2,0,0,0-2-2H324a2,2,0,0,0-2,2v52a2,2,0,0,0,2,2h49a1,1,0,0,1,0,2H324a4,4,0,0,1-4-4v-52a4,4,0,0,1,4-4h52a4,4,0,0,1,4,4v55A1,1,0,0,1,379,4527Zm-13-38a4,4,0,1,1-4,4A4,4,0,0,1,366,4489Zm0,2a2,2,0,1,1-2,2A2,2,0,0,1,366,4491Zm0-14a1,1,0,0,1,1,1v6a1,1,0,0,1-2,0v-6A1,1,0,0,1,366,4477Zm-32,28a4,4,0,1,1,4-4A4,4,0,0,1,334,4505Zm0-2a2,2,0,1,1,2-2A2,2,0,0,1,334,4503Zm0-10a1,1,0,0,1-1-1v-14a1,1,0,0,1,2,0v14A1,1,0,0,1,334,4493Zm16-8a4,4,0,1,1,4-4A4,4,0,0,1,350,4485Zm0-2a2,2,0,1,1,2-2A2,2,0,0,1,350,4483Z" transform="translate(-320 -4467)"/>
</svg>
