<svg xmlns="http://www.w3.org/2000/svg" width="22.07" height="14" viewBox="0 0 22.07 14">
  <metadata><?xpacket begin="﻿" id="W5M0MpCehiHzreSzNTczkc9d"?>
<x:xmpmeta xmlns:x="adobe:ns:meta/" x:xmptk="Adobe XMP Core 5.6-c142 79.160924, 2017/07/13-01:06:39        ">
   <rdf:RDF xmlns:rdf="http://www.w3.org/1999/02/22-rdf-syntax-ns#">
      <rdf:Description rdf:about=""/>
   </rdf:RDF>
</x:xmpmeta>
                                                                                                    
                                                                                                    
                                                                                                    
                                                                                                    
                                                                                                    
                                                                                                    
                                                                                                    
                                                                                                    
                                                                                                    
                                                                                                    
                                                                                                    
                                                                                                    
                                                                                                    
                                                                                                    
                                                                                                    
                                                                                                    
                                                                                                    
                                                                                                    
                                                                                                    
                                                                                                    
                           
<?xpacket end="w"?></metadata>
<defs>
    <style>
      .cls-1 {
        fill: #fff;
        fill-rule: evenodd;
      }
    </style>
  </defs>
  <path class="cls-1" d="M1163.44,8062.5a3.465,3.465,0,0,1,.63,2.08,3.024,3.024,0,0,1-.63,2.01,3.193,3.193,0,0,1-1.05.78,3.043,3.043,0,0,1,1.58,1.2,3.683,3.683,0,0,1,.53,2,3.958,3.958,0,0,1-.61,2.18,3.534,3.534,0,0,1-.96,1.07,3.669,3.669,0,0,1-1.54.69,9.791,9.791,0,0,1-1.93.19h-6.15v-13.65h6.59A4.176,4.176,0,0,1,1163.44,8062.5Zm-7.41.92v3.01h3.32a2.789,2.789,0,0,0,1.44-.34,1.3,1.3,0,0,0,.56-1.2,1.22,1.22,0,0,0-.74-1.26,5.2,5.2,0,0,0-1.61-.21h-2.97Zm0,5.27v3.63h3.31a3.425,3.425,0,0,0,1.39-.23,1.723,1.723,0,0,0,.89-1.71,1.456,1.456,0,0,0-.87-1.46,3.268,3.268,0,0,0-1.36-.23h-3.36Zm16.72-3.88a4.025,4.025,0,0,1,1.74,1.49,4.87,4.87,0,0,1,.81,2.09,13.289,13.289,0,0,1,.09,2h-7.35a2.429,2.429,0,0,0,1.05,2.13,2.736,2.736,0,0,0,1.46.38,2.257,2.257,0,0,0,1.46-.46,2.07,2.07,0,0,0,.54-0.7h2.7a3.319,3.319,0,0,1-.98,1.83,4.905,4.905,0,0,1-3.8,1.47,5.543,5.543,0,0,1-3.55-1.24,4.892,4.892,0,0,1-1.54-4.04,5.481,5.481,0,0,1,1.39-4.03,4.876,4.876,0,0,1,3.61-1.39A5.636,5.636,0,0,1,1172.75,8064.81Zm-3.95,2.28a2.757,2.757,0,0,0-.7,1.56h4.55a2.205,2.205,0,0,0-.71-1.6,2.313,2.313,0,0,0-1.56-.54A2.091,2.091,0,0,0,1168.8,8067.09Zm4.47-3.71h-5.85v-1.7h5.85v1.7Z" transform="translate(-1153.31 -8061.03)"/>
</svg>
