<svg id="briefcase" xmlns="http://www.w3.org/2000/svg" width="60" height="60" viewBox="0 0 60 60">
  <metadata><?xpacket begin="﻿" id="W5M0MpCehiHzreSzNTczkc9d"?>
<x:xmpmeta xmlns:x="adobe:ns:meta/" x:xmptk="Adobe XMP Core 5.6-c142 79.160924, 2017/07/13-01:06:39        ">
   <rdf:RDF xmlns:rdf="http://www.w3.org/1999/02/22-rdf-syntax-ns#">
      <rdf:Description rdf:about=""/>
   </rdf:RDF>
</x:xmpmeta>
                                                                                                    
                                                                                                    
                                                                                                    
                                                                                                    
                                                                                                    
                                                                                                    
                                                                                                    
                                                                                                    
                                                                                                    
                                                                                                    
                                                                                                    
                                                                                                    
                                                                                                    
                                                                                                    
                                                                                                    
                                                                                                    
                                                                                                    
                                                                                                    
                                                                                                    
                                                                                                    
                           
<?xpacket end="w"?></metadata>
<defs>
    <style>
      .cls-1 {
        fill: #2f3238;
      }

      .cls-1, .cls-2 {
        fill-rule: evenodd;
      }

      .cls-2 {
        fill: #26e6e6;
      }
    </style>
  </defs>
  <path id="black" class="cls-1" d="M1067,1737a1,1,0,0,1-1-1v-43a2,2,0,0,0-2-2h-52a2,2,0,0,0-2,2v40a2.006,2.006,0,0,0,2,2h49a1,1,0,0,1,0,2h-49a4,4,0,0,1-4-4v-40a4,4,0,0,1,4-4h52a4,4,0,0,1,4,4v43A1,1,0,0,1,1067,1737Zm-21-48v-8a2,2,0,0,0-2-2h-12a2,2,0,0,0-2,2v3a1,1,0,0,1-2,0v-3a4,4,0,0,1,4-4h12a4,4,0,0,1,4,4v8h-2Z" transform="translate(-1008 -1677)"/>
  <path id="blue" class="cls-2" d="M1025,1695a1,1,0,0,1,1,1v34a1,1,0,0,1-2,0v-34A1,1,0,0,1,1025,1695Zm-6,0a1,1,0,0,1,1,1v34a1,1,0,0,1-2,0v-34A1,1,0,0,1,1019,1695Zm38,0a1,1,0,0,1,1,1v34a1,1,0,0,1-2,0v-34A1,1,0,0,1,1057,1695Zm-6,0a1,1,0,0,1,1,1v34a1,1,0,0,1-2,0v-34A1,1,0,0,1,1051,1695Z" transform="translate(-1008 -1677)"/>
</svg>
