<svg id="browsers" xmlns="http://www.w3.org/2000/svg" width="60" height="60" viewBox="0 0 60 60">
  <metadata><?xpacket begin="﻿" id="W5M0MpCehiHzreSzNTczkc9d"?>
<x:xmpmeta xmlns:x="adobe:ns:meta/" x:xmptk="Adobe XMP Core 5.6-c142 79.160924, 2017/07/13-01:06:39        ">
   <rdf:RDF xmlns:rdf="http://www.w3.org/1999/02/22-rdf-syntax-ns#">
      <rdf:Description rdf:about=""/>
   </rdf:RDF>
</x:xmpmeta>
                                                                                                    
                                                                                                    
                                                                                                    
                                                                                                    
                                                                                                    
                                                                                                    
                                                                                                    
                                                                                                    
                                                                                                    
                                                                                                    
                                                                                                    
                                                                                                    
                                                                                                    
                                                                                                    
                                                                                                    
                                                                                                    
                                                                                                    
                                                                                                    
                                                                                                    
                                                                                                    
                           
<?xpacket end="w"?></metadata>
<defs>
    <style>
      .cls-1 {
        fill: #2f3238;
      }

      .cls-1, .cls-2 {
        fill-rule: evenodd;
      }

      .cls-2 {
        fill: #26e6e6;
      }
    </style>
  </defs>
  <path id="black" class="cls-1" d="M1058,1498h-46a4,4,0,0,1-4-4v-46a4,4,0,0,1,4-4h43a1,1,0,0,1,0,2h-43a2,2,0,0,0-2,2v46a2.006,2.006,0,0,0,2,2h46a2.006,2.006,0,0,0,2-2v-49a1,1,0,0,1,2,0v49A4,4,0,0,1,1058,1498Zm-43-40h46a1,1,0,0,1,0,2h-46A1,1,0,0,1,1015,1458Z" transform="translate(-1008 -1438)"/>
  <path id="blue" class="cls-2" d="M1016,1450a2,2,0,1,1-2,2A2.006,2.006,0,0,1,1016,1450Zm8,0a2,2,0,1,1-2,2A2.006,2.006,0,0,1,1024,1450Zm8,0a2,2,0,1,1-2,2A2.006,2.006,0,0,1,1032,1450Zm35,42a1,1,0,0,1-1-1v-49a2,2,0,0,0-2-2h-49a1,1,0,0,1,0-2h49a4,4,0,0,1,4,4v49A1,1,0,0,1,1067,1492Z" transform="translate(-1008 -1438)"/>
</svg>
