<svg id="card" xmlns="http://www.w3.org/2000/svg" width="60" height="43" viewBox="0 0 60 43">
  <metadata><?xpacket begin="﻿" id="W5M0MpCehiHzreSzNTczkc9d"?>
<x:xmpmeta xmlns:x="adobe:ns:meta/" x:xmptk="Adobe XMP Core 5.6-c142 79.160924, 2017/07/13-01:06:39        ">
   <rdf:RDF xmlns:rdf="http://www.w3.org/1999/02/22-rdf-syntax-ns#">
      <rdf:Description rdf:about=""/>
   </rdf:RDF>
</x:xmpmeta>
                                                                                                    
                                                                                                    
                                                                                                    
                                                                                                    
                                                                                                    
                                                                                                    
                                                                                                    
                                                                                                    
                                                                                                    
                                                                                                    
                                                                                                    
                                                                                                    
                                                                                                    
                                                                                                    
                                                                                                    
                                                                                                    
                                                                                                    
                                                                                                    
                                                                                                    
                                                                                                    
                           
<?xpacket end="w"?></metadata>
<defs>
    <style>
      .cls-1 {
        fill: #2f3238;
      }

      .cls-1, .cls-2 {
        fill-rule: evenodd;
      }

      .cls-2 {
        fill: #26e6e6;
      }
    </style>
  </defs>
  <path id="black" class="cls-1" d="M1143,932h-25a3.981,3.981,0,0,1-3.45-6H1114a4,4,0,0,1-4-4h2a2,2,0,0,0,2,2h16v2h-12a2,2,0,0,0,0,4h25a13,13,0,1,0,0-26h-15a2,2,0,0,0,0,4h10v2h-10a4,4,0,0,1,0-8h15A15,15,0,1,1,1143,932Zm2-15a9,9,0,0,1-9-9h2a7,7,0,0,0,7,7A1,1,0,1,1,1145,917Zm-11,5h-32a4,4,0,0,1-4-4V890a1,1,0,0,1,2,0v28a2,2,0,0,0,2,2h32a2,2,0,0,0,2-2h0a1,1,0,0,1,2,0h0A4,4,0,0,1,1134,922Zm2-29a2,2,0,0,0-2-2h-29a1,1,0,0,1,0-2h29a4,4,0,0,1,4,4v9h-2v-9Zm-31,2h26a1,1,0,1,1,0,2h-26A1,1,0,1,1,1105,895Z" transform="translate(-1098 -889)"/>
  <path id="blue" class="cls-2" d="M1105,901h14a1,1,0,0,1,0,2h-14A1,1,0,0,1,1105,901Zm0,13h26a1,1,0,1,1,0,2h-26A1,1,0,1,1,1105,914Z" transform="translate(-1098 -889)"/>
</svg>
