<svg id="cart" xmlns="http://www.w3.org/2000/svg" width="60" height="45" viewBox="0 0 60 45">
  <metadata><?xpacket begin="﻿" id="W5M0MpCehiHzreSzNTczkc9d"?>
<x:xmpmeta xmlns:x="adobe:ns:meta/" x:xmptk="Adobe XMP Core 5.6-c142 79.160924, 2017/07/13-01:06:39        ">
   <rdf:RDF xmlns:rdf="http://www.w3.org/1999/02/22-rdf-syntax-ns#">
      <rdf:Description rdf:about=""/>
   </rdf:RDF>
</x:xmpmeta>
                                                                                                    
                                                                                                    
                                                                                                    
                                                                                                    
                                                                                                    
                                                                                                    
                                                                                                    
                                                                                                    
                                                                                                    
                                                                                                    
                                                                                                    
                                                                                                    
                                                                                                    
                                                                                                    
                                                                                                    
                                                                                                    
                                                                                                    
                                                                                                    
                                                                                                    
                                                                                                    
                           
<?xpacket end="w"?></metadata>
<defs>
    <style>
      .cls-1 {
        fill: #2f3238;
      }

      .cls-1, .cls-2 {
        fill-rule: evenodd;
      }

      .cls-2 {
        fill: #26e6e6;
      }
    </style>
  </defs>
  <path id="black" class="cls-1" d="M689,4509a4,4,0,1,1-4,4A4,4,0,0,1,689,4509Zm0,2a2,2,0,1,1-2,2A2,2,0,0,1,689,4511Zm26-2a4,4,0,1,1-4,4A4,4,0,0,1,715,4509Zm0,2a2,2,0,1,1-2,2A2,2,0,0,1,715,4511Zm-48-39h10a1,1,0,0,1,0,2H667A1,1,0,0,1,667,4472Zm9.707,0.02a0.965,0.965,0,0,1,1.2.71l8.08,31.02a1,1,0,0,1-.689,1.23,0.965,0.965,0,0,1-1.2-.71l-8.081-31.02A1,1,0,0,1,676.707,4472.02ZM685,4503h33a1,1,0,0,1,0,2H685A1,1,0,0,1,685,4503Zm40.253-25.98a1.006,1.006,0,0,1,.707,1.23l-6.988,26.02a1,1,0,0,1-1.932-.52l6.988-26.02A1.007,1.007,0,0,1,725.253,4477.02ZM685,4477h40a1,1,0,0,1,0,2H685A1,1,0,0,1,685,4477Zm13,35h8a1,1,0,0,1,0,2h-8A1,1,0,0,1,698,4512Z" transform="translate(-666 -4472)"/>
  <path id="blue" class="cls-2" d="M699,4483a1,1,0,0,1,1,1v14a1,1,0,0,1-2,0v-14A1,1,0,0,1,699,4483Zm6,0a1,1,0,0,1,1,1v14a1,1,0,0,1-2,0v-14A1,1,0,0,1,705,4483Zm5,5a1,1,0,0,1-1,1H695a1,1,0,0,1,0-2h14A1,1,0,0,1,710,4488Zm0,6a1,1,0,0,1-1,1H695a1,1,0,0,1,0-2h14A1,1,0,0,1,710,4494Z" transform="translate(-666 -4472)"/>
</svg>
