<svg id="chart" xmlns="http://www.w3.org/2000/svg" width="55.41" height="55.37" viewBox="0 0 55.41 55.37">
  <metadata><?xpacket begin="﻿" id="W5M0MpCehiHzreSzNTczkc9d"?>
<x:xmpmeta xmlns:x="adobe:ns:meta/" x:xmptk="Adobe XMP Core 5.6-c142 79.160924, 2017/07/13-01:06:39        ">
   <rdf:RDF xmlns:rdf="http://www.w3.org/1999/02/22-rdf-syntax-ns#">
      <rdf:Description rdf:about=""/>
   </rdf:RDF>
</x:xmpmeta>
                                                                                                    
                                                                                                    
                                                                                                    
                                                                                                    
                                                                                                    
                                                                                                    
                                                                                                    
                                                                                                    
                                                                                                    
                                                                                                    
                                                                                                    
                                                                                                    
                                                                                                    
                                                                                                    
                                                                                                    
                                                                                                    
                                                                                                    
                                                                                                    
                                                                                                    
                                                                                                    
                           
<?xpacket end="w"?></metadata>
<defs>
    <style>
      .cls-1 {
        fill: #26e6e6;
      }

      .cls-1, .cls-2 {
        fill-rule: evenodd;
      }

      .cls-2 {
        fill: #2f3238;
      }
    </style>
  </defs>
  <path id="blue" class="cls-1" d="M1063.37,4490a1,1,0,0,1-1,1H1040a1,1,0,0,1-1-1h0v-22.38a1,1,0,0,1,2,0V4489h20.09a28.052,28.052,0,0,0-15.09-18.28,2.63,2.63,0,0,1-.55-0.31,0.99,0.99,0,0,1,.55-1.82,0.88,0.88,0,0,1,.48.15,0.01,0.01,0,0,0,.01-0.01A30.065,30.065,0,0,1,1063.4,4490h-0.03Z" transform="translate(-1008 -4466.63)"/>
  <path id="black" class="cls-2" d="M1059.19,4502.31a25.982,25.982,0,1,1-26.19-32.26v0.01a1,1,0,0,1,0,2c-0.01,0-.03-0.01-0.04-0.01A23.986,23.986,0,1,0,1057.2,4502a1.059,1.059,0,0,1,.07-0.24,0.976,0.976,0,0,1,.95-0.76,1,1,0,0,1,1,1A1.123,1.123,0,0,1,1059.19,4502.31ZM1034,4470a1,1,0,0,1,1,1v25a1,1,0,0,1-2,0v-25A1,1,0,0,1,1034,4470Zm0,25h25a1,1,0,0,1,0,2h-25A1,1,0,0,1,1034,4495Zm0.72,0.28a1,1,0,0,1,0,1.4l-12.04,12.04a0.99,0.99,0,1,1-1.4-1.4l12.04-12.04A1,1,0,0,1,1034.72,4495.28Z" transform="translate(-1008 -4466.63)"/>
</svg>
