<svg id="chat" xmlns="http://www.w3.org/2000/svg" width="60" height="60" viewBox="0 0 60 60">
  <metadata><?xpacket begin="﻿" id="W5M0MpCehiHzreSzNTczkc9d"?>
<x:xmpmeta xmlns:x="adobe:ns:meta/" x:xmptk="Adobe XMP Core 5.6-c142 79.160924, 2017/07/13-01:06:39        ">
   <rdf:RDF xmlns:rdf="http://www.w3.org/1999/02/22-rdf-syntax-ns#">
      <rdf:Description rdf:about=""/>
   </rdf:RDF>
</x:xmpmeta>
                                                                                                    
                                                                                                    
                                                                                                    
                                                                                                    
                                                                                                    
                                                                                                    
                                                                                                    
                                                                                                    
                                                                                                    
                                                                                                    
                                                                                                    
                                                                                                    
                                                                                                    
                                                                                                    
                                                                                                    
                                                                                                    
                                                                                                    
                                                                                                    
                                                                                                    
                                                                                                    
                           
<?xpacket end="w"?></metadata>
<defs>
    <style>
      .cls-1 {
        fill: #2f3238;
      }

      .cls-1, .cls-2 {
        fill-rule: evenodd;
      }

      .cls-2 {
        fill: #26e6e6;
      }
    </style>
  </defs>
  <path id="black" class="cls-1" d="M723,4289a4,4,0,0,1-4,4H690.394l-13.645,13.64a0.967,0.967,0,0,1-.749.36,1,1,0,0,1-.925-0.63,0.984,0.984,0,0,1-.075-0.46V4293h0v-2h2v12.54l12.26-12.26a0.969,0.969,0,0,1,.649-0.28H719a2,2,0,0,0,2-2v-32a2,2,0,0,0-2-2H673a2,2,0,0,0-2,2v31h0v4a1,1,0,0,1-2,0v-3h0v-32a4,4,0,0,1,4-4h46a4,4,0,0,1,4,4v32Zm-46,2v2" transform="translate(-669 -4247)"/>
  <path id="blue" class="cls-2" d="M686,4270a3,3,0,1,1-3,3A3,3,0,0,1,686,4270Zm0,2a1,1,0,1,1-1,1A1,1,0,0,1,686,4272Zm10-2a3,3,0,1,1-3,3A3,3,0,0,1,696,4270Zm0,2a1,1,0,1,1-1,1A1,1,0,0,1,696,4272Zm10-2a3,3,0,1,1-3,3A3,3,0,0,1,706,4270Zm0,2a1,1,0,1,1-1,1A1,1,0,0,1,706,4272Zm22,17a1,1,0,0,1-1-1v-37a2,2,0,0,0-2-2H676a1,1,0,0,1,0-2h49a4,4,0,0,1,4,4v37A1,1,0,0,1,728,4289Z" transform="translate(-669 -4247)"/>
</svg>
