<svg xmlns="http://www.w3.org/2000/svg" width="22.44" height="22.47" viewBox="0 0 22.44 22.47">
  <metadata><?xpacket begin="﻿" id="W5M0MpCehiHzreSzNTczkc9d"?>
<x:xmpmeta xmlns:x="adobe:ns:meta/" x:xmptk="Adobe XMP Core 5.6-c142 79.160924, 2017/07/13-01:06:39        ">
   <rdf:RDF xmlns:rdf="http://www.w3.org/1999/02/22-rdf-syntax-ns#">
      <rdf:Description rdf:about=""/>
   </rdf:RDF>
</x:xmpmeta>
                                                                                                    
                                                                                                    
                                                                                                    
                                                                                                    
                                                                                                    
                                                                                                    
                                                                                                    
                                                                                                    
                                                                                                    
                                                                                                    
                                                                                                    
                                                                                                    
                                                                                                    
                                                                                                    
                                                                                                    
                                                                                                    
                                                                                                    
                                                                                                    
                                                                                                    
                                                                                                    
                           
<?xpacket end="w"?></metadata>
<defs>
    <style>
      .cls-1 {
        fill: #fff;
        fill-rule: evenodd;
      }
    </style>
  </defs>
  <path class="cls-1" d="M1214.23,8056.98a11.225,11.225,0,1,0,11.22,11.22A11.229,11.229,0,0,0,1214.23,8056.98Zm7.12,5.17a9.279,9.279,0,0,1,2.2,5.43,46.687,46.687,0,0,0-6.38.08c-0.24-.62-0.5-1.23-0.77-1.81A11.31,11.31,0,0,0,1221.35,8062.15Zm-7.12-3.3a9.29,9.29,0,0,1,5.97,2.16,11.606,11.606,0,0,1-4.6,3.24,23.443,23.443,0,0,0-3.67-5.1A9.239,9.239,0,0,1,1214.23,8058.85Zm-4.23,1.02a22.586,22.586,0,0,1,3.73,5.06,24.653,24.653,0,0,1-7.11,1.02c-0.49,0-.97-0.02-1.44-0.05A9.385,9.385,0,0,1,1210,8059.87Zm-5.1,7.89c0.53,0.02,1.07.03,1.61,0.03a27.548,27.548,0,0,0,8.04-1.26c0.22,0.47.43,0.94,0.64,1.43a4.456,4.456,0,0,0-.84.25,13.942,13.942,0,0,0-7.13,6.17,9.335,9.335,0,0,1-2.34-6.18C1204.88,8068.05,1204.89,8067.91,1204.9,8067.76Zm9.33,9.8a9.273,9.273,0,0,1-5.73-1.98,12.922,12.922,0,0,1,6.27-5.77,5.3,5.3,0,0,1,1.01-.31q0.51,1.4.9,2.88a33.432,33.432,0,0,1,.86,4.56A9.315,9.315,0,0,1,1214.23,8077.56Zm5.05-1.49a32.812,32.812,0,0,0-.87-4.62c-0.2-.76-0.42-1.49-0.67-2.21a39.818,39.818,0,0,1,5.78,0A9.359,9.359,0,0,1,1219.28,8076.07Z" transform="translate(-1203 -8056.97)"/>
</svg>
