<svg id="edit" xmlns="http://www.w3.org/2000/svg" width="60" height="60" viewBox="0 0 60 60">
  <metadata><?xpacket begin="﻿" id="W5M0MpCehiHzreSzNTczkc9d"?>
<x:xmpmeta xmlns:x="adobe:ns:meta/" x:xmptk="Adobe XMP Core 5.6-c142 79.160924, 2017/07/13-01:06:39        ">
   <rdf:RDF xmlns:rdf="http://www.w3.org/1999/02/22-rdf-syntax-ns#">
      <rdf:Description rdf:about=""/>
   </rdf:RDF>
</x:xmpmeta>
                                                                                                    
                                                                                                    
                                                                                                    
                                                                                                    
                                                                                                    
                                                                                                    
                                                                                                    
                                                                                                    
                                                                                                    
                                                                                                    
                                                                                                    
                                                                                                    
                                                                                                    
                                                                                                    
                                                                                                    
                                                                                                    
                                                                                                    
                                                                                                    
                                                                                                    
                                                                                                    
                           
<?xpacket end="w"?></metadata>
<defs>
    <style>
      .cls-1 {
        fill: #26e6e6;
      }

      .cls-1, .cls-2 {
        fill-rule: evenodd;
      }

      .cls-2 {
        fill: #2f3238;
      }
    </style>
  </defs>
  <path id="blue" class="cls-1" d="M1048.71,1860.29a1.044,1.044,0,0,1,0,1.48l-17.91,17.91a1.047,1.047,0,0,1-1.48-1.48l17.91-17.91A1.044,1.044,0,0,1,1048.71,1860.29Z" transform="translate(-1008 -1841)"/>
  <path id="black" class="cls-2" d="M1066.8,1853.53l-36.27,36.27a4.04,4.04,0,0,1-2.11,1.1,1,1,0,0,1-.42.1h-9a1.006,1.006,0,0,1-.39-0.08,0.983,0.983,0,0,1-.53-0.53,1.006,1.006,0,0,1-.08-0.39v-9a1.435,1.435,0,0,1,.04-0.22,3.974,3.974,0,0,1,1.13-2.34l36.27-36.27a4.014,4.014,0,0,1,5.68,0l5.68,5.68A4.032,4.032,0,0,1,1066.8,1853.53Zm-1.39-4.29-5.69-5.69a2.016,2.016,0,0,0-2.84,0L1020,1880.43V1889h8.51l36.9-36.91A2.01,2.01,0,0,0,1065.41,1849.24Zm-46.12,30.05a1.044,1.044,0,0,1,1.48,0l8.91,8.91a1.044,1.044,0,0,1,0,1.48,1.063,1.063,0,0,1-1.48,0l-8.91-8.91A1.044,1.044,0,0,1,1019.29,1879.29Zm30-29a1.044,1.044,0,0,1,1.48,0l3.91,3.91a1.047,1.047,0,0,1-1.48,1.48l-3.91-3.91A1.044,1.044,0,0,1,1049.29,1850.29ZM1009,1841a1,1,0,0,1,1,1v58a1,1,0,0,1-2,0v-58A1,1,0,0,1,1009,1841Zm59,59a1,1,0,0,1-1,1h-52a1,1,0,0,1,0-2h52A1,1,0,0,1,1068,1900Zm-59-59h30a1,1,0,0,1,0,2h-30A1,1,0,0,1,1009,1841Zm57,59v-30a1,1,0,0,1,2,0v30A1,1,0,0,1,1066,1900Z" transform="translate(-1008 -1841)"/>
</svg>
