<svg id="gouge" xmlns="http://www.w3.org/2000/svg" width="60" height="60" viewBox="0 0 60 60">
  <metadata><?xpacket begin="﻿" id="W5M0MpCehiHzreSzNTczkc9d"?>
<x:xmpmeta xmlns:x="adobe:ns:meta/" x:xmptk="Adobe XMP Core 5.6-c142 79.160924, 2017/07/13-01:06:39        ">
   <rdf:RDF xmlns:rdf="http://www.w3.org/1999/02/22-rdf-syntax-ns#">
      <rdf:Description rdf:about=""/>
   </rdf:RDF>
</x:xmpmeta>
                                                                                                    
                                                                                                    
                                                                                                    
                                                                                                    
                                                                                                    
                                                                                                    
                                                                                                    
                                                                                                    
                                                                                                    
                                                                                                    
                                                                                                    
                                                                                                    
                                                                                                    
                                                                                                    
                                                                                                    
                                                                                                    
                                                                                                    
                                                                                                    
                                                                                                    
                                                                                                    
                           
<?xpacket end="w"?></metadata>
<defs>
    <style>
      .cls-1 {
        fill: #2f3238;
      }

      .cls-1, .cls-2 {
        fill-rule: evenodd;
      }

      .cls-2 {
        fill: #26e6e6;
      }
    </style>
  </defs>
  <path id="black" class="cls-1" d="M324,4287h45a1,1,0,0,1,0,2H325a1,1,0,0,1-1-1C324,4287.45,323.448,4287,324,4287Zm12,6h36c0.552,0,.473.71,0,1-1.125.68-.448,1-1,1H336A1,1,0,0,1,336,4293Zm17-48.01V4245a1.005,1.005,0,0,0,0,2.01h0a28,28,0,1,1-6,0h0a1.005,1.005,0,0,0,0-2.01v-0.01A30,30,0,1,0,353,4244.99ZM373,4276a1,1,0,0,1-1-1,22,22,0,0,0-44,0,1,1,0,0,1-2,0,24,24,0,0,1,48,0A1,1,0,0,1,373,4276Z" transform="translate(-320 -4245)"/>
  <path id="blue" class="cls-2" d="M350,4259a1,1,0,0,1,1,1v22a1,1,0,0,1-2,0v-22A1,1,0,0,1,350,4259Z" transform="translate(-320 -4245)"/>
</svg>
