<svg id="mail" xmlns="http://www.w3.org/2000/svg" width="60" height="46" viewBox="0 0 60 46">
  <metadata><?xpacket begin="﻿" id="W5M0MpCehiHzreSzNTczkc9d"?>
<x:xmpmeta xmlns:x="adobe:ns:meta/" x:xmptk="Adobe XMP Core 5.6-c142 79.160924, 2017/07/13-01:06:39        ">
   <rdf:RDF xmlns:rdf="http://www.w3.org/1999/02/22-rdf-syntax-ns#">
      <rdf:Description rdf:about=""/>
   </rdf:RDF>
</x:xmpmeta>
                                                                                                    
                                                                                                    
                                                                                                    
                                                                                                    
                                                                                                    
                                                                                                    
                                                                                                    
                                                                                                    
                                                                                                    
                                                                                                    
                                                                                                    
                                                                                                    
                                                                                                    
                                                                                                    
                                                                                                    
                                                                                                    
                                                                                                    
                                                                                                    
                                                                                                    
                                                                                                    
                           
<?xpacket end="w"?></metadata>
<defs>
    <style>
      .cls-1 {
        fill: #2f3238;
      }

      .cls-1, .cls-2 {
        fill-rule: evenodd;
      }

      .cls-2 {
        fill: #26e6e6;
      }
    </style>
  </defs>
  <path id="black" class="cls-1" d="M497,935H445a4,4,0,0,1-4-4V896a1,1,0,0,1,2,0v35a2,2,0,0,0,2,2h52a2,2,0,0,0,2-2V893a2,2,0,0,0-2-2H442a1,1,0,0,1,0-2h55a4,4,0,0,1,4,4v38A4,4,0,0,1,497,935Z" transform="translate(-441 -889)"/>
  <path id="blue" class="cls-2" d="M494.692,895.276a1,1,0,0,1,0,1.417l-23,23a1,1,0,0,1-1.416-1.416l23-23A1,1,0,0,1,494.692,895.276Zm-47.384,0a1,1,0,0,0,0,1.417l23,23a1,1,0,0,0,1.416-1.416l-23-23A1,1,0,0,0,447.308,895.276Z" transform="translate(-441 -889)"/>
</svg>
