<svg id="phone" xmlns="http://www.w3.org/2000/svg" width="38" height="60" viewBox="0 0 38 60">
  <metadata><?xpacket begin="﻿" id="W5M0MpCehiHzreSzNTczkc9d"?>
<x:xmpmeta xmlns:x="adobe:ns:meta/" x:xmptk="Adobe XMP Core 5.6-c142 79.160924, 2017/07/13-01:06:39        ">
   <rdf:RDF xmlns:rdf="http://www.w3.org/1999/02/22-rdf-syntax-ns#">
      <rdf:Description rdf:about=""/>
   </rdf:RDF>
</x:xmpmeta>
                                                                                                    
                                                                                                    
                                                                                                    
                                                                                                    
                                                                                                    
                                                                                                    
                                                                                                    
                                                                                                    
                                                                                                    
                                                                                                    
                                                                                                    
                                                                                                    
                                                                                                    
                                                                                                    
                                                                                                    
                                                                                                    
                                                                                                    
                                                                                                    
                                                                                                    
                                                                                                    
                           
<?xpacket end="w"?></metadata>
<defs>
    <style>
      .cls-1 {
        fill: #2f3238;
      }

      .cls-1, .cls-2 {
        fill-rule: evenodd;
      }

      .cls-2 {
        fill: #26e6e6;
      }
    </style>
  </defs>
  <path id="black" class="cls-1" d="M1019,4245h30a4,4,0,0,1,4,4v52a4,4,0,0,1-4,4h-30a4,4,0,0,1-4-4v-52A4,4,0,0,1,1019,4245Zm0,2h30a2,2,0,0,1,2,2v52a2.006,2.006,0,0,1-2,2h-30a2.006,2.006,0,0,1-2-2v-52A2,2,0,0,1,1019,4247Zm-3,46h30a1,1,0,0,1,0,2h-30A1,1,0,0,1,1016,4293Zm6-38h30a1,1,0,0,1,0,2h-30A1,1,0,0,1,1022,4255Z" transform="translate(-1015 -4245)"/>
  <path id="blue" class="cls-2" d="M1034,4297a2,2,0,1,1-2,2A2.006,2.006,0,0,1,1034,4297Zm-3-47h6a1,1,0,0,1,0,2h-6A1,1,0,0,1,1031,4250Zm-9.72,15.36,4.08-4.08a0.962,0.962,0,1,1,1.36,1.36l-4.08,4.07A0.958,0.958,0,0,1,1021.28,4265.36Zm0,6,10.08-10.08a0.962,0.962,0,1,1,1.36,1.36l-10.08,10.07A0.958,0.958,0,0,1,1021.28,4271.36Z" transform="translate(-1015 -4245)"/>
</svg>
