<svg xmlns="http://www.w3.org/2000/svg" width="23.34" height="18.97" viewBox="0 0 23.34 18.97">
  <metadata><?xpacket begin="﻿" id="W5M0MpCehiHzreSzNTczkc9d"?>
<x:xmpmeta xmlns:x="adobe:ns:meta/" x:xmptk="Adobe XMP Core 5.6-c142 79.160924, 2017/07/13-01:06:39        ">
   <rdf:RDF xmlns:rdf="http://www.w3.org/1999/02/22-rdf-syntax-ns#">
      <rdf:Description rdf:about=""/>
   </rdf:RDF>
</x:xmpmeta>
                                                                                                    
                                                                                                    
                                                                                                    
                                                                                                    
                                                                                                    
                                                                                                    
                                                                                                    
                                                                                                    
                                                                                                    
                                                                                                    
                                                                                                    
                                                                                                    
                                                                                                    
                                                                                                    
                                                                                                    
                                                                                                    
                                                                                                    
                                                                                                    
                                                                                                    
                                                                                                    
                           
<?xpacket end="w"?></metadata>
<defs>
    <style>
      .cls-1 {
        fill: #fff;
        fill-rule: evenodd;
      }
    </style>
  </defs>
  <path class="cls-1" d="M1076.34,8060.8a9.411,9.411,0,0,1-2.75.75,4.8,4.8,0,0,0,2.11-2.65,9.746,9.746,0,0,1-3.04,1.17,4.79,4.79,0,0,0-8.29,3.27,4.419,4.419,0,0,0,.13,1.1,13.628,13.628,0,0,1-9.88-5.01,4.821,4.821,0,0,0,1.49,6.4,4.785,4.785,0,0,1-2.17-.6v0.06a4.785,4.785,0,0,0,3.84,4.69,4.788,4.788,0,0,1-1.26.17,5.285,5.285,0,0,1-.9-0.08,4.785,4.785,0,0,0,4.47,3.32,9.571,9.571,0,0,1-5.95,2.05,10.741,10.741,0,0,1-1.14-.06,13.624,13.624,0,0,0,20.97-11.48c0-.21-0.01-0.41-0.02-0.62A9.714,9.714,0,0,0,1076.34,8060.8Z" transform="translate(-1053 -8058.56)"/>
</svg>
